<svg width="180" height="180" viewBox="0 0 180 180" fill="none" xmlns="http://www.w3.org/2000/svg">
<path d="M180 90C180 150.751 150.751 180 90 180C29.2487 180 0 150.751 0 90C0 29.2487 29.2487 0 90 0C150.751 0 180 29.2487 180 90Z" fill="#E9E9E9"/>
<path d="M73.6542 147.675C68.4342 147.675 62.5392 147.225 55.9692 146.325C52.3692 145.875 49.8942 144.93 48.5442 143.49C47.1942 142.05 46.6092 139.71 46.7892 136.47C47.4192 127.56 48.9042 116.58 51.2442 103.53C53.5842 90.39 56.4192 77.745 59.7492 65.595C60.3792 63.345 61.6392 61.77 63.5292 60.87C65.4192 59.97 67.8942 59.52 70.9542 59.52C76.4442 59.52 79.1892 61.05 79.1892 64.11C79.1892 65.37 78.9192 66.81 78.3792 68.43C76.0392 75.63 73.6992 85.305 71.3592 97.455C69.0192 109.515 67.3542 121.035 66.3642 132.015C69.0642 132.285 72.1242 132.42 75.5442 132.42C91.2942 132.42 103.039 127.65 110.779 118.11C118.609 108.57 122.524 95.835 122.524 79.905C122.524 69.195 119.464 60.915 113.344 55.065C107.224 49.215 98.5842 46.29 87.4242 46.29C80.2242 46.29 73.0692 47.415 65.9592 49.665C58.9392 51.915 52.5942 54.885 46.9242 58.575C45.7542 59.385 44.4942 59.79 43.1442 59.79C41.6142 59.79 40.3992 59.16 39.4992 57.9C38.5992 56.55 38.1492 54.93 38.1492 53.04C38.1492 50.88 38.5092 49.125 39.2292 47.775C39.9492 46.335 41.1642 45.03 42.8742 43.86C49.0842 39.63 56.3742 36.435 64.7442 34.275C73.1142 32.025 81.1692 30.9 88.9092 30.9C99.8892 30.9 109.384 32.835 117.394 36.705C125.404 40.485 131.569 46.065 135.889 53.445C140.209 60.825 142.369 69.735 142.369 80.175C142.369 93.765 139.669 105.645 134.269 115.815C128.869 125.895 120.994 133.725 110.644 139.305C100.294 144.885 87.9642 147.675 73.6542 147.675Z" fill="#3A3F58"/>
</svg>
